# xmcd CD database file
#
# Track frame offsets:
#	150
#	136521
#	191646
#
# Disc length: 3605 seconds
#
# Revision: 0
# Processed by: cddbd v1.5.2PL0 Copyright (c) Steve Scherf et al.
# Submitted via: CDex 1.51
#
DISCID=1e0e1303
DTITLE=Robert J. Boyd - Celestial Reiki
DYEAR=2007
DGENRE=New Age
TTITLE0=Bright Side of the Moon
TTITLE1=Harmonic Concordance
TTITLE2=Venus Transit
EXTD=YEAR: 2007
EXTT0=
EXTT1=
EXTT2=
PLAYORDER=
